{
	"asset":{
		"generator":"Khronos glTF Blender I/O v3.5.30",
		"version":"2.0"
	},
	"scene":0,
	"scenes":[
		{
			"name":"Scene",
			"nodes":[
				0
			]
		}
	],
	"nodes":[
		{
			"mesh":0,
			"name":"KeyboardImac",
			"rotation":[
				0,
				-1,
				0,
				1.6292068494294654e-07
			],
			"scale":[
				4.818054676055908,
				0.13093389570713043,
				1.9809424877166748
			],
			"translation":[
				0.009200096130371094,
				0.13352632522583008,
				-0.06052064895629883
			]
		}
	],
	"materials":[
		{
			"doubleSided":true,
			"name":"BadanKeyboard",
			"pbrMetallicRoughness":{}
		},
		{
			"doubleSided":true,
			"name":"Key",
			"pbrMetallicRoughness":{}
		},
		{
			"doubleSided":true,
			"name":"TextKey",
			"pbrMetallicRoughness":{
				"baseColorTexture":{
					"index":0
				},
				"metallicFactor":0,
				"roughnessFactor":0.5
			}
		},
		{
			"doubleSided":true,
			"name":"Lobang",
			"pbrMetallicRoughness":{}
		},
		{
			"doubleSided":true,
			"name":"Hjau",
			"pbrMetallicRoughness":{}
		}
	],
	"meshes":[
		{
			"name":"Cube",
			"primitives":[
				{
					"attributes":{
						"POSITION":0,
						"TEXCOORD_0":1,
						"NORMAL":2
					},
					"indices":3,
					"material":0
				},
				{
					"attributes":{
						"POSITION":4,
						"TEXCOORD_0":5,
						"NORMAL":6
					},
					"indices":7,
					"material":1
				},
				{
					"attributes":{
						"POSITION":8,
						"TEXCOORD_0":9,
						"NORMAL":10
					},
					"indices":11,
					"material":2
				},
				{
					"attributes":{
						"POSITION":12,
						"TEXCOORD_0":13,
						"NORMAL":14
					},
					"indices":15,
					"material":3
				},
				{
					"attributes":{
						"POSITION":16,
						"TEXCOORD_0":17,
						"NORMAL":18
					},
					"indices":19,
					"material":4
				}
			]
		}
	],
	"textures":[
		{
			"sampler":0,
			"source":0
		}
	],
	"images":[
		{
			"bufferView":12,
			"mimeType":"image/jpeg",
			"name":"MLA22LL"
		}
	],
	"accessors":[
		{
			"bufferView":0,
			"componentType":5126,
			"count":3385,
			"max":[
				0.999948263168335,
				0.9524734020233154,
				1
			],
			"min":[
				-0.999948263168335,
				-0.9994217157363892,
				-1
			],
			"type":"VEC3"
		},
		{
			"bufferView":1,
			"componentType":5126,
			"count":3385,
			"type":"VEC2"
		},
		{
			"bufferView":2,
			"componentType":5126,
			"count":3385,
			"type":"VEC3"
		},
		{
			"bufferView":3,
			"componentType":5123,
			"count":20244,
			"type":"SCALAR"
		},
		{
			"bufferView":4,
			"componentType":5126,
			"count":13880,
			"max":[
				0.9566569924354553,
				1.0166471004486084,
				0.9007274508476257
			],
			"min":[
				-0.9588143229484558,
				-0.3581101894378662,
				-0.8916891813278198
			],
			"type":"VEC3"
		},
		{
			"bufferView":5,
			"componentType":5126,
			"count":13880,
			"type":"VEC2"
		},
		{
			"bufferView":6,
			"componentType":5126,
			"count":13880,
			"type":"VEC3"
		},
		{
			"bufferView":7,
			"componentType":5123,
			"count":24516,
			"type":"SCALAR"
		},
		{
			"bufferView":8,
			"componentType":5126,
			"count":2776,
			"max":[
				0.9566569924354553,
				1.0166471004486084,
				0.8999025821685791
			],
			"min":[
				-0.9588143229484558,
				-0.0061081647872924805,
				-0.8916891813278198
			],
			"type":"VEC3"
		},
		{
			"bufferView":9,
			"componentType":5126,
			"count":2776,
			"type":"VEC2"
		},
		{
			"bufferView":10,
			"componentType":5126,
			"count":2776,
			"type":"VEC3"
		},
		{
			"bufferView":11,
			"componentType":5123,
			"count":7860,
			"type":"SCALAR"
		},
		{
			"bufferView":13,
			"componentType":5126,
			"count":45,
			"max":[
				0.11423848569393158,
				0.32668811082839966,
				1
			],
			"min":[
				-0.11423849314451218,
				-0.32506370544433594,
				0.9415493607521057
			],
			"type":"VEC3"
		},
		{
			"bufferView":14,
			"componentType":5126,
			"count":45,
			"type":"VEC2"
		},
		{
			"bufferView":15,
			"componentType":5126,
			"count":45,
			"type":"VEC3"
		},
		{
			"bufferView":16,
			"componentType":5123,
			"count":216,
			"type":"SCALAR"
		},
		{
			"bufferView":17,
			"componentType":5126,
			"count":24,
			"max":[
				-0.7737210988998413,
				0.3264824450016022,
				0.9994831085205078
			],
			"min":[
				-0.8620373606681824,
				-0.32527294754981995,
				0.9858195781707764
			],
			"type":"VEC3"
		},
		{
			"bufferView":18,
			"componentType":5126,
			"count":24,
			"type":"VEC2"
		},
		{
			"bufferView":19,
			"componentType":5126,
			"count":24,
			"type":"VEC3"
		},
		{
			"bufferView":20,
			"componentType":5123,
			"count":120,
			"type":"SCALAR"
		}
	],
	"bufferViews":[
		{
			"buffer":0,
			"byteLength":40620,
			"byteOffset":0,
			"target":34962
		},
		{
			"buffer":0,
			"byteLength":27080,
			"byteOffset":40620,
			"target":34962
		},
		{
			"buffer":0,
			"byteLength":40620,
			"byteOffset":67700,
			"target":34962
		},
		{
			"buffer":0,
			"byteLength":40488,
			"byteOffset":108320,
			"target":34963
		},
		{
			"buffer":0,
			"byteLength":166560,
			"byteOffset":148808,
			"target":34962
		},
		{
			"buffer":0,
			"byteLength":111040,
			"byteOffset":315368,
			"target":34962
		},
		{
			"buffer":0,
			"byteLength":166560,
			"byteOffset":426408,
			"target":34962
		},
		{
			"buffer":0,
			"byteLength":49032,
			"byteOffset":592968,
			"target":34963
		},
		{
			"buffer":0,
			"byteLength":33312,
			"byteOffset":642000,
			"target":34962
		},
		{
			"buffer":0,
			"byteLength":22208,
			"byteOffset":675312,
			"target":34962
		},
		{
			"buffer":0,
			"byteLength":33312,
			"byteOffset":697520,
			"target":34962
		},
		{
			"buffer":0,
			"byteLength":15720,
			"byteOffset":730832,
			"target":34963
		},
		{
			"buffer":0,
			"byteLength":149994,
			"byteOffset":746552
		},
		{
			"buffer":0,
			"byteLength":540,
			"byteOffset":896548,
			"target":34962
		},
		{
			"buffer":0,
			"byteLength":360,
			"byteOffset":897088,
			"target":34962
		},
		{
			"buffer":0,
			"byteLength":540,
			"byteOffset":897448,
			"target":34962
		},
		{
			"buffer":0,
			"byteLength":432,
			"byteOffset":897988,
			"target":34963
		},
		{
			"buffer":0,
			"byteLength":288,
			"byteOffset":898420,
			"target":34962
		},
		{
			"buffer":0,
			"byteLength":192,
			"byteOffset":898708,
			"target":34962
		},
		{
			"buffer":0,
			"byteLength":288,
			"byteOffset":898900,
			"target":34962
		},
		{
			"buffer":0,
			"byteLength":240,
			"byteOffset":899188,
			"target":34963
		}
	],
	"samplers":[
		{
			"magFilter":9729,
			"minFilter":9987
		}
	],
	"buffers":[
		{
			"byteLength":899428,
			"uri":"data:application/octet-stream;base64,"
		}
	]
}
